<?xml version="1.0" encoding="UTF-8"?>
<svg width="54px" height="54px" viewBox="0 0 54 54" version="1.1" xmlns="http://www.w3.org/2000/svg" xmlns:xlink="http://www.w3.org/1999/xlink">
    <!-- Generator: Sketch 51.3 (57544) - http://www.bohemiancoding.com/sketch -->
    <title>facebook</title>
    <desc>Created with Sketch.</desc>
    <defs></defs>
    <g id="Page-1" stroke="none" stroke-width="1" fill="none" fill-rule="evenodd">
        <g id="facebook" fill-rule="nonzero">
            <path d="M51.0198241,54 C52.6654897,54 54,52.6655 54,51.0194281 L54,2.98036233 C54,1.33408092 52.6656992,0 51.0198241,0 L2.98038546,0 C1.33409127,0 0,1.33408092 0,2.98036233 L0,51.0194281 C0,52.6652905 1.33388174,54 2.98038546,54 L51.0198241,54 Z" id="Blue_1_" fill="#23394A"></path>
            <path d="M37.5781803,54 L37.5781803,33.4733198 L44.6540635,33.4733198 L45.7135766,25.4737083 L37.5781803,25.4737083 L37.5781803,20.3664618 C37.5781803,18.0503896 38.2386862,16.4720629 41.6495749,16.4720629 L46,16.4702118 L46,9.31529514 C45.2476105,9.21780662 42.6651529,9 39.6606643,9 C33.3882875,9 29.0940487,12.7280102 29.0940487,19.5742133 L29.0940487,25.4737083 L22,25.4737083 L22,33.4733198 L29.0940487,33.4733198 L29.0940487,54 L37.5781803,54 Z" id="f" fill="#FFFFFF"></path>
        </g>
    </g>
</svg>