<?xml version="1.0" encoding="UTF-8"?>
<svg width="61px" height="59px" viewBox="0 0 61 59" version="1.1" xmlns="http://www.w3.org/2000/svg" xmlns:xlink="http://www.w3.org/1999/xlink">
    <!-- Generator: Sketch 51.3 (57544) - http://www.bohemiancoding.com/sketch -->
    <title>github</title>
    <desc>Created with Sketch.</desc>
    <defs></defs>
    <g id="Page-1" stroke="none" stroke-width="1" fill="none" fill-rule="evenodd">
        <g id="github" fill="#23394a">
            <path d="M30.5,0 C13.64875,0 0,13.5351603 0,30.2461684 C0,43.6300979 8.730625,54.9346033 20.854375,58.9422206 C22.379375,59.2068746 22.95125,58.2994895 22.95125,57.5055276 C22.95125,56.7871811 22.913125,54.4052954 22.913125,51.8721788 C15.25,53.271064 13.2675,50.0196009 12.6575,48.318254 C12.314375,47.4486766 10.8275,44.7643292 9.53125,44.0459827 C8.46375,43.478867 6.93875,42.0799817 9.493125,42.042174 C11.895,42.0043663 13.610625,44.2350212 14.1825,45.1424063 C16.9275,49.7171393 21.311875,48.4316771 23.065625,47.6377152 C23.3325,45.6717142 24.133125,44.3484444 25.01,43.5922902 C18.22375,42.836136 11.1325,40.2274039 11.1325,28.6582445 C11.1325,25.3689737 12.314375,22.6468186 14.25875,20.5295868 C13.95375,19.7734326 12.88625,16.6732003 14.56375,12.5143522 C14.56375,12.5143522 17.118125,11.7203902 22.95125,15.6145844 C25.39125,14.9340456 27.98375,14.5937762 30.57625,14.5937762 C33.16875,14.5937762 35.76125,14.9340456 38.20125,15.6145844 C44.034375,11.6825825 46.58875,12.5143522 46.58875,12.5143522 C48.26625,16.6732003 47.19875,19.7734326 46.89375,20.5295868 C48.838125,22.6468186 50.02,25.331166 50.02,28.6582445 C50.02,40.2652116 42.890625,42.836136 36.104375,43.5922902 C37.21,44.5374829 38.163125,46.352253 38.163125,49.1878313 C38.163125,53.2332563 38.125,56.4847194 38.125,57.5055276 C38.125,58.2994895 38.696875,59.2446823 40.221875,58.9422206 C52.269375,54.9346033 61,43.5922902 61,30.2461684 C61,13.5351603 47.35125,0 30.5,0 Z" id="Shape"></path>
        </g>
    </g>
</svg>