<?xml version="1.0" encoding="UTF-8"?>
<svg width="62px" height="59px" viewBox="0 0 62 59" version="1.1" xmlns="http://www.w3.org/2000/svg" xmlns:xlink="http://www.w3.org/1999/xlink">
    <!-- Generator: Sketch 51.3 (57544) - http://www.bohemiancoding.com/sketch -->
    <title>linkedin</title>
    <desc>Created with Sketch.</desc>
    <defs></defs>
    <g id="Page-1" stroke="none" stroke-width="1" fill="none" fill-rule="evenodd">
        <g id="linkedin" fill="#23394a" fill-rule="nonzero">
            <path d="M62,36.1728532 L62,59 L48.7113925,59 L48.7113925,37.7016779 C48.7113925,32.3513657 46.7893387,28.6999869 41.9793033,28.6999869 C38.3074512,28.6999869 36.1223295,31.1607486 35.1610143,33.5411215 C34.8104492,34.3920954 34.7202133,35.5765398 34.7202133,36.7677311 L34.7202133,59 L21.4271373,59 C21.4271373,59 21.6061676,22.927633 21.4271373,19.1902667 L34.718916,19.1902667 L34.718916,24.8331371 C34.6919606,24.8753412 34.6569329,24.9208471 34.631563,24.9617593 L34.718916,24.9617593 L34.718916,24.8331371 C36.4848588,22.1244617 39.6386472,18.255028 46.6978055,18.255028 C55.4436258,18.2548844 62,23.9448397 62,36.1728532 Z M7.52201378,0 C2.97446974,0 0,2.97051353 0,6.87684002 C0,10.6980404 2.88841408,13.7587043 7.34557806,13.7587043 L7.43437251,13.7587043 C12.0699903,13.7587043 14.9529268,10.6986146 14.9529268,6.87684002 C14.8655738,2.97051353 12.0699903,0 7.52201378,0 Z M0.789492161,59 L14.0775231,59 L14.0775231,19.1902667 L0.789492161,19.1902667 L0.789492161,59 Z" id="LinkedIn"></path>
        </g>
    </g>
</svg>