<?xml version="1.0" encoding="UTF-8"?>
<svg width="58px" height="58px" viewBox="0 0 58 58" version="1.1" xmlns="http://www.w3.org/2000/svg" xmlns:xlink="http://www.w3.org/1999/xlink">
    <!-- Generator: Sketch 51.3 (57544) - http://www.bohemiancoding.com/sketch -->
    <title>mobx-logo</title>
    <desc>Created with Sketch.</desc>
    <defs></defs>
    <g id="Page-1" stroke="none" stroke-width="1" fill="none" fill-rule="evenodd">
        <g id="mobx-logo" fill-rule="nonzero">
            <path d="M58,53.5438842 L58,4.27271448 C58,2.25145432 56.6394222,0.545585549 54.7754048,0 L52.6585786,1.25317668 L29.1668097,26.0350284 L28.4303195,28.3126499 L28,30.4988403 L35.3255426,57.5860198 L36.4589815,58 L53.4961146,58 C55.9835194,58 58,56.0049838 58,53.5438842" id="Shape" fill="#EA6618"></path>
            <path d="M0,4.42514542 L0,53.353879 C0,54.8669881 0.766124682,56.2020216 1.93411421,57 L3.36510749,56.3204076 L27.9982277,30.1632892 L28.9639362,28.2980024 L29,26.4947747 L22.2958311,1.19731137 L21.2806504,0 L4.46174001,0 C1.99761116,0 0,1.98122702 0,4.42514542" id="Shape" fill="#D65813"></path>
            <path d="M28.7328429,28 L55,0.180284125 C54.5955391,0.0635985525 54.1677334,0 53.7244939,0 L21,0 L28.7328429,28 Z" id="Shape" fill="#E05E11"></path>
            <path d="M4.52882844,58 L37,58 L29.0426056,28 L2,57.2072639 C2.71892093,57.7068751 3.58979821,58 4.52882844,58" id="Shape" fill="#DE5C16"></path>
            <path d="M21.5588546,22.4688723 L24.7506196,22.4688723 C26.0222653,27.3567664 27.4696486,31.6458728 29.0844117,35.51582 C30.9135092,31.1617812 32.2542191,26.8698113 33.3891042,22.4688723 L36.4050558,22.4688723 C35.0543168,27.9372119 32.8447971,33.4484273 30.3174608,39.1370269 L27.6497169,39.1370269 C25.2220638,33.746312 23.155307,28.2039075 21.5588546,22.4688723 Z M11.031303,14 L18.1283435,14 L18.1283435,44.9999769 L11,44.9999769 L11,42.6103208 L15.3687421,42.6103208 L15.3687421,16.3259618 L11.031303,16.3259618 L11.031303,14 Z M46.9687731,16.325985 L42.631258,16.325985 L42.631258,42.6103441 L47,42.6103441 L47,45 L39.8717326,45 L39.8717326,14.0000232 L46.9687731,14.0000232 L46.9687731,16.325985 Z" id="Shape" fill="#FFFFFF"></path>
        </g>
    </g>
</svg>