<?xml version="1.0" encoding="UTF-8"?>
<svg width="71px" height="64px" viewBox="0 0 71 64" version="1.1" xmlns="http://www.w3.org/2000/svg" xmlns:xlink="http://www.w3.org/1999/xlink">
    <!-- Generator: Sketch 51.3 (57544) - http://www.bohemiancoding.com/sketch -->
    <title>react-logo</title>
    <desc>Created with Sketch.</desc>
    <defs></defs>
    <g id="Page-1" stroke="none" stroke-width="1" fill="none" fill-rule="evenodd">
        <g id="react-logo" fill="#61DAFB" fill-rule="nonzero">
            <path d="M71,32.0073243 C71,27.2465095 65.1098655,22.7347219 56.0792907,19.9368276 C58.1632695,10.6202792 57.2370567,3.20805676 53.1559315,0.834973678 C52.2152466,0.278324559 51.1153689,0.014648661 49.9141867,0.014648661 L49.9141867,3.28130007 C50.5799022,3.28130007 51.1153689,3.41313802 51.5640033,3.66216526 C53.5322055,4.80476081 54.3860579,9.15541314 53.7203424,14.7512016 C53.5611496,16.1281758 53.3006523,17.5783932 52.9822666,19.057908 C50.1457399,18.3547723 47.0487159,17.8127718 43.792499,17.4612039 C41.8387689,14.7512016 39.8126784,12.2902266 37.7721158,10.1368734 C42.4900122,5.69832914 46.9184672,3.26665141 49.9286588,3.26665141 L49.9286588,0 C45.9488382,0 40.7388912,2.87113756 35.4710558,7.85168231 C30.2032205,2.90043488 24.9932735,0.0585946441 21.0134529,0.0585946441 L21.0134529,3.32524605 C24.0091724,3.32524605 28.4520995,5.74227512 33.1699959,10.1515221 C31.1439054,12.3048753 29.1178149,14.7512016 27.1930289,17.4612039 C23.92234,17.8127718 20.8253159,18.3547723 17.9887892,19.0725566 C17.6559315,17.6076905 17.4099062,16.1867704 17.2362413,14.824445 C16.5560538,9.22865644 17.3954342,4.87800412 19.3491643,3.7207599 C19.7833265,3.457084 20.3477375,3.33989471 21.0134529,3.33989471 L21.0134529,0.0732433051 C19.7977986,0.0732433051 18.6979209,0.336919203 17.742764,0.893568322 C13.6761109,3.26665141 12.7643702,10.6642252 14.862821,19.9514763 C5.86119038,22.7640192 0,27.2611582 0,32.0073243 C0,36.7681392 5.89013453,41.2799268 14.9207093,44.077821 C12.8367305,53.3943694 13.7629433,60.8065919 17.8440685,63.179675 C18.7847534,63.7363241 19.8846311,64 21.1002854,64 C25.080106,64 30.290053,61.1288624 35.5578883,56.1483177 C40.8257236,61.0995651 46.0356706,63.9414054 50.0154912,63.9414054 C51.2311455,63.9414054 52.3310232,63.6777295 53.2861802,63.1210803 C57.3528333,60.7479973 58.264574,53.3504234 56.1661231,44.0631724 C65.1388096,41.2652781 71,36.7534905 71,32.0073243 Z M52.1573583,22.2366674 C51.6218916,24.1263447 50.9561761,26.0746166 50.2036282,28.0228885 C49.6102731,26.8509957 48.9879739,25.6791028 48.3077864,24.5072099 C47.6420709,23.335317 46.9329393,22.1927214 46.2238076,21.0794232 C48.2788422,21.3870451 50.2615165,21.7679103 52.1573583,22.2366674 Z M45.529148,37.8374914 C44.4003261,39.8150607 43.2425601,41.6900893 42.0413779,43.4332799 C39.8850387,43.6237125 37.6997554,43.7262531 35.5,43.7262531 C33.3147167,43.7262531 31.1294333,43.6237125 28.9875662,43.4479286 C27.786384,41.7047379 26.6141459,39.844358 25.4853241,37.8814374 C24.3854464,35.9624628 23.3868732,34.0141909 22.4751325,32.0512703 C23.3724011,30.0883497 24.3854464,28.1254292 25.470852,26.2064546 C26.5996739,24.2288853 27.7574399,22.3538567 28.9586221,20.6106661 C31.1149613,20.4202335 33.3002446,20.3176928 35.5,20.3176928 C37.6852833,20.3176928 39.8705667,20.4202335 42.0124338,20.5960174 C43.213616,22.3392081 44.3858541,24.199588 45.5146759,26.1625086 C46.6145536,28.0814832 47.6131268,30.0297551 48.5248675,31.9926757 C47.6131268,33.9555962 46.6145536,35.9185168 45.529148,37.8374914 Z M50.2036282,35.9331655 C50.9851203,37.8960861 51.6508357,39.8590066 52.2007746,41.7633326 C50.3049327,42.2320897 48.3077864,42.6276036 46.2382797,42.9352255 C46.9474113,41.8072786 47.656543,40.6500343 48.3222585,39.4634928 C48.9879739,38.2915999 49.6102731,37.1050584 50.2036282,35.9331655 Z M35.5289442,51.5632868 C34.1830412,50.1570153 32.8371382,48.5896086 31.5057073,46.8757153 C32.808194,46.9343099 34.1396249,46.9782559 35.4855279,46.9782559 C36.845903,46.9782559 38.191806,46.9489586 39.5087648,46.8757153 C38.206278,48.5896086 36.8603751,50.1570153 35.5289442,51.5632868 Z M24.7617203,42.9352255 C22.7066857,42.6276036 20.7240114,42.2467384 18.8281696,41.7779812 C19.3636364,39.888304 20.0293518,37.940032 20.7818997,35.9917601 C21.3752548,37.163653 21.997554,38.3355459 22.6777415,39.5074388 C23.3579291,40.6793317 24.0525887,41.8219272 24.7617203,42.9352255 Z M35.4565838,12.4513619 C36.8024868,13.8576333 38.1483897,15.4250401 39.4798206,17.1389334 C38.1773339,17.0803388 36.845903,17.0363928 35.5,17.0363928 C34.1396249,17.0363928 32.793722,17.0656901 31.4767631,17.1389334 C32.7792499,15.4250401 34.1251529,13.8576333 35.4565838,12.4513619 Z M24.7472483,21.0794232 C24.0381166,22.2073701 23.3289849,23.3646143 22.6632695,24.5511559 C21.997554,25.7230488 21.3752548,26.8949416 20.7818997,28.0668345 C20.0004077,26.1039139 19.3346922,24.1409934 18.7847534,22.2366674 C20.6805952,21.7825589 22.6777415,21.3870451 24.7472483,21.0794232 Z M11.6500204,39.4195468 C6.52690583,37.207599 3.21280065,34.3071641 3.21280065,32.0073243 C3.21280065,29.7074846 6.52690583,26.792401 11.6500204,24.5951019 C12.8946188,24.0531014 14.2549939,23.5696956 15.6587852,23.1155871 C16.4836934,25.9867247 17.5690991,28.9750515 18.915002,32.0366217 C17.5835711,35.0835431 16.5126376,38.0572213 15.7022014,40.9137102 C14.269466,40.4596017 12.9090909,39.9615473 11.6500204,39.4195468 Z M19.4359967,60.3524834 C17.4677945,59.2098878 16.6139421,54.8592355 17.2796576,49.263447 C17.4388504,47.8864729 17.6993477,46.4362554 18.0177334,44.9567407 C20.8542601,45.6598764 23.9512841,46.2018769 27.207501,46.5534447 C29.1612311,49.263447 31.1873216,51.7244221 33.2278842,53.8777752 C28.5099878,58.3163195 24.0815328,60.7479973 21.0713412,60.7479973 C20.4200978,60.7333486 19.870159,60.6015106 19.4359967,60.3524834 Z M53.7637587,49.1902037 C54.4439462,54.7859922 53.6045658,59.1366445 51.6508357,60.2938888 C51.2166735,60.5575647 50.6522625,60.6747539 49.9865471,60.6747539 C46.9908276,60.6747539 42.5479005,58.2577249 37.8300041,53.8484779 C39.8560946,51.6951247 41.8821851,49.2487984 43.8069711,46.5387961 C47.07766,46.1872282 50.1746841,45.6452277 53.0112108,44.9274434 C53.3440685,46.4069581 53.6045658,47.8278782 53.7637587,49.1902037 Z M59.3355075,39.4195468 C58.0909091,39.9615473 56.730534,40.4449531 55.3267428,40.8990616 C54.5018345,38.027924 53.4164289,35.0395972 52.0705259,31.978027 C53.4019568,28.9311055 54.4728903,25.9574273 55.2833265,23.1009384 C56.716062,23.5550469 58.076437,24.0531014 59.3499796,24.5951019 C64.4730942,26.8070497 67.7871993,29.7074846 67.7871993,32.0073243 C67.7727273,34.3071641 64.4586221,37.2222477 59.3355075,39.4195468 Z" id="Shape"></path>
            <circle id="Oval" cx="35.5" cy="31.5" r="6.5"></circle>
        </g>
    </g>
</svg>