<?xml version="1.0" encoding="UTF-8"?>
<svg width="62px" height="58px" viewBox="0 0 62 58" version="1.1" xmlns="http://www.w3.org/2000/svg" xmlns:xlink="http://www.w3.org/1999/xlink">
    <!-- Generator: Sketch 51.3 (57544) - http://www.bohemiancoding.com/sketch -->
    <title>redux-logo</title>
    <desc>Created with Sketch.</desc>
    <defs></defs>
    <g id="Page-1" stroke="none" stroke-width="1" fill="none" fill-rule="evenodd">
        <g id="redux-logo" fill="#764ABC" fill-rule="nonzero">
            <path d="M44.8763897,41.7746835 C47.2665169,41.5544304 49.0797169,39.7189873 48.9972987,37.5164557 C48.9148806,35.3139241 46.854426,33.5518987 44.3818806,33.5518987 L44.2170442,33.5518987 C41.6620806,33.6253165 39.6840442,35.5341772 39.7664624,37.8101266 C39.8488806,38.9113924 40.3433897,39.8658228 41.0851533,40.5265823 C38.2829351,45.4455696 33.9971897,49.043038 27.5685715,52.0531646 C23.2004079,54.1088608 18.6674079,54.843038 14.1344079,54.3291139 C10.4255898,53.8886076 7.5409534,52.4202532 5.7277534,49.9974684 C3.09037159,46.4 2.84311704,42.5088608 5.06840795,38.6177215 C6.6343534,35.8278481 9.10689885,33.7721519 10.6728443,32.7443038 C10.3431716,31.7898734 9.84866248,30.1746835 9.60140794,29 C-2.3492284,36.7088608 -1.11295567,47.1341772 2.51344432,52.0531646 C5.23324431,55.7240506 10.7552625,58 16.8542079,58 C18.5025715,58 20.1509352,57.8531646 21.7992988,57.4860759 C32.3488261,55.6506329 40.3433897,50.0708861 44.8763897,41.7746835 Z" id="Shape"></path>
            <path d="M56.9280367,31.6731141 C51.0279156,24.959381 42.3330003,21.2630561 32.3959542,21.2630561 L31.1538234,21.2630561 C30.4551249,19.9052224 28.9800946,19 27.349798,19 L27.1945316,19 C24.7879033,19.0754352 22.9247071,21.0367505 23.0023403,23.3752418 C23.0799735,25.6382979 25.0208028,27.4487427 27.349798,27.4487427 L27.5050643,27.4487427 C29.2129941,27.3733075 30.6880244,26.3172147 31.3090898,24.8839458 L32.7064869,24.8839458 C38.606608,24.8839458 44.1961964,26.5435203 49.2423526,29.787234 C53.1240113,32.2765957 55.9188055,35.5203095 57.4714689,39.44294 C58.7912329,42.6112186 58.7135997,45.7040619 57.3162026,48.344294 C55.1424738,52.3423598 51.4937146,54.5299807 46.6804579,54.5299807 C43.575131,54.5299807 40.6250705,53.6247582 39.072407,52.9458414 C38.2184421,53.7001934 36.6657787,54.9071567 35.5789143,55.6615087 C38.9171407,57.1702128 42.3330003,58 45.5935935,58 C53.0463781,58 58.5583333,54.0019342 60.654429,50.0038685 C62.905791,45.6286267 62.7505247,38.0851064 56.9280367,31.6731141 Z" id="Shape"></path>
            <path d="M16.1977586,41.8040541 C16.2733551,44.1351351 18.1632659,46 20.4311589,46 L20.5823518,46 C22.9258413,45.9222973 24.7401557,43.902027 24.6645592,41.4932432 C24.5889628,39.1621622 22.699052,37.2972973 20.4311589,37.2972973 L20.2799661,37.2972973 C20.1287732,37.2972973 19.9019839,37.2972973 19.750791,37.375 C16.6513372,32.0912162 15.3661979,26.3412162 15.8197765,20.125 C16.1221622,15.4628378 17.6340909,11.4222973 20.2799661,8.08108108 C22.4722627,5.20608108 26.705663,3.80743243 29.5783275,3.72972973 C37.5915495,3.57432432 40.993389,13.8310811 41.2201783,17.9493243 C42.2029319,18.1824324 43.8660535,18.7263514 45,19.1148649 C44.0928428,6.52702703 36.5331994,0 29.2759417,0 C22.4722627,0 16.1977586,5.05067568 13.7030763,12.5101351 C10.2256404,22.4560811 12.4935334,32.0135135 16.7269337,39.5506757 C16.3489515,40.0945946 16.1221622,40.9493243 16.1977586,41.8040541 Z" id="Shape"></path>
        </g>
    </g>
</svg>