<?xml version="1.0" encoding="UTF-8"?>
<svg width="88px" height="66px" viewBox="0 0 88 66" version="1.1" xmlns="http://www.w3.org/2000/svg" xmlns:xlink="http://www.w3.org/1999/xlink">
    <!-- Generator: Sketch 51.3 (57544) - http://www.bohemiancoding.com/sketch -->
    <title>sass-logo</title>
    <desc>Created with Sketch.</desc>
    <defs></defs>
    <g id="Page-1" stroke="none" stroke-width="1" fill="none" fill-rule="evenodd">
        <g id="sass-logo" fill="#CD6799" fill-rule="nonzero">
            <path d="M75.7748921,37.9408214 C72.7048456,37.9568962 70.0366376,38.6963381 67.8024152,39.789426 C66.9826645,38.1658689 66.1629139,36.7191349 66.018252,35.6581966 C65.8575166,34.4204352 65.6646341,33.6649186 65.8575166,32.1860349 C66.0503991,30.7071512 66.9183704,28.6013494 66.9022968,28.4406012 C66.8862233,28.279853 66.7094143,27.5243363 64.9413247,27.5082615 C63.1732351,27.4921867 61.6462485,27.8458328 61.4694396,28.3120026 C61.2926306,28.7781725 60.9550862,29.8391108 60.7300566,30.9321987 C60.4246593,32.539681 57.1938774,38.2783927 55.34542,41.2843845 C54.750699,40.1109225 54.2363456,39.0821338 54.1238308,38.2623179 C53.9630954,37.0245565 53.7702129,36.2690398 53.9630954,34.7901562 C54.1559779,33.3112725 55.0239492,31.2054707 55.0078756,31.0447225 C54.9918021,30.8839743 54.8149931,30.1284576 53.0469035,30.1123828 C51.2788139,30.0963079 49.7518274,30.449954 49.5750184,30.9161239 C49.3982094,31.3822938 49.2053269,32.4753817 48.8356354,33.53632 C48.465944,34.5972583 44.1743082,44.1778526 43.0491603,46.6533753 C42.4705128,47.9232863 41.9722329,48.9360001 41.618615,49.6272175 C41.618615,49.6272175 41.618615,49.6272175 41.618615,49.6272175 C41.618615,49.6272175 41.6025415,49.675442 41.5543208,49.7558161 C41.2489235,50.3505845 41.0721146,50.672081 41.0721146,50.672081 C41.0721146,50.672081 41.0721146,50.672081 41.0721146,50.6881558 C40.8310115,51.122176 40.5738348,51.5240466 40.4452464,51.5240466 C40.3488052,51.5240466 40.1719962,50.3666593 40.4773935,48.7913267 C41.1203352,45.4638384 42.6473217,40.2877455 42.6312482,40.1109225 C42.6312482,40.0144735 42.9205719,39.1142835 41.6346886,38.6481136 C40.3809523,38.1819437 39.9308931,38.9535352 39.8183783,38.9535352 C39.7058635,38.9535352 39.6254958,39.2268072 39.6254958,39.2268072 C39.6254958,39.2268072 41.023894,33.4077214 36.9572878,33.4077214 C34.4176681,33.4077214 30.9136359,36.1886657 29.1776934,38.6963381 C28.0846925,39.2911065 25.7540289,40.5610175 23.2626299,41.9273774 C22.3142909,42.4578466 21.3338048,42.9883157 20.4176129,43.4866352 C20.3533187,43.4223359 20.2890246,43.3419618 20.2247304,43.2776625 C15.3062265,38.0211955 6.20860164,34.3079115 6.59436665,27.2510643 C6.73902853,24.6790927 7.62307335,17.9276672 24.066307,9.72950762 C37.6002295,3.05845622 48.3695027,4.90706082 50.2340336,9.0061406 C52.9022416,14.8573761 44.463632,25.7239562 30.4796503,27.2992888 C25.1432343,27.8940572 22.346438,25.8364799 21.6392021,25.0648884 C20.8998192,24.2611473 20.7873044,24.2129228 20.5140542,24.3736711 C20.063995,24.6147934 20.3533187,25.3381604 20.5140542,25.7561058 C20.9319663,26.8491938 22.6518353,28.7781725 25.5611464,29.726587 C28.1329131,30.5624778 34.385521,31.0286477 41.9561594,28.1030299 C50.4269161,24.8237661 57.0492155,15.7093417 55.1043169,8.07380089 C53.1594183,0.325736363 40.3005846,-2.23016044 28.1329131,2.09396686 C20.8998192,4.66593848 13.0559306,8.7167938 7.4141173,13.9893356 C0.711450222,20.2585165 -0.349403561,25.7078814 0.0845820775,27.9905062 C1.64371567,36.0922168 12.8148275,41.3647586 17.2832722,45.2709405 C17.0582426,45.3995391 16.8492865,45.5120629 16.6724776,45.6085118 C14.4382552,46.7176746 5.91927788,51.1704005 3.79757032,55.8803235 C1.38653899,61.2171646 4.18333533,65.0429724 6.03179268,65.5573667 C11.7700472,67.1487742 17.6690372,64.2874558 20.835525,59.5614579 C24.0020128,54.83546 23.6162478,48.6948778 22.1535555,45.8817838 C22.1374819,45.8496342 22.1214084,45.8174845 22.0892613,45.7853349 C22.6679088,45.4477636 23.2626299,45.0941175 23.8412774,44.7565462 C24.9824989,44.0814037 26.1076468,43.4544856 27.0720594,42.9400913 C26.5255589,44.4350498 26.1237204,46.2193551 25.9308379,48.7913267 C25.6897347,51.8133934 26.9273975,55.7356501 28.5508252,57.2788331 C29.2741346,57.9539756 30.1260324,57.9700504 30.6725328,57.9700504 C32.5692108,57.9700504 33.4211085,56.3947178 34.3694475,54.5300384 C35.5267425,52.2474136 36.5715228,49.5950678 36.5715228,49.5950678 C36.5715228,49.5950678 35.2695659,56.7644387 38.8057451,56.7644387 C40.0916285,56.7644387 41.3935854,55.0926572 41.9722329,54.2406916 C41.9722329,54.2567664 41.9722329,54.2567664 41.9722329,54.2567664 C41.9722329,54.2567664 42.00438,54.2085419 42.0686742,54.0960182 C42.1972625,53.8870455 42.2776302,53.7584469 42.2776302,53.7584469 C42.2776302,53.7584469 42.2776302,53.7423721 42.2776302,53.7262973 C42.7919836,52.8261072 43.9492786,50.7846047 45.6691476,47.3928171 C47.8872965,43.0204654 50.0250776,37.5550257 50.0250776,37.5550257 C50.0250776,37.5550257 50.2179601,38.8892359 50.8769753,41.1075615 C51.2627403,42.4096221 52.0664174,43.8402813 52.7093591,45.2227161 C52.1950058,45.9460831 51.8735349,46.3479537 51.8735349,46.3479537 C51.8735349,46.3479537 51.8735349,46.3479537 51.8896085,46.3640285 C51.4716964,46.9105725 51.0216372,47.5053409 50.5233574,48.0840345 C48.7713413,50.1737615 46.6817808,52.56891 46.392457,53.2601274 C46.0549127,54.0799434 46.1352804,54.6747118 46.7782221,55.1569565 C47.2443548,55.5106026 48.080179,55.558827 48.9320767,55.5106026 C50.5072838,55.3980788 51.6163582,55.0122831 52.1628587,54.7711607 C53.0147564,54.4657391 54.011316,53.9995692 54.9435815,53.3083519 C56.6634505,52.0384409 57.7082307,50.2219859 57.6117895,47.8268373 C57.5635688,46.5087019 57.1295832,45.1905664 56.5991563,43.9528051 C56.7598917,43.7277576 56.9045536,43.50271 57.065289,43.2776625 C59.7817177,39.3071813 61.8873517,34.9509044 61.8873517,34.9509044 C61.8873517,34.9509044 62.0802342,36.2851147 62.7392494,38.5034402 C63.0607203,39.6286778 63.7197355,40.8503643 64.298383,42.0399012 C61.7426898,44.1135533 60.1674827,46.5247767 59.6049087,48.1001093 C58.5922755,51.0257271 59.3798791,52.3438625 60.8747185,52.6492841 C61.5498073,52.7939575 62.5142198,52.4724611 63.2214557,52.1670395 C64.121574,51.8776927 65.1824278,51.3793732 66.195061,50.6399313 C67.91493,49.3700203 69.5705048,47.6017898 69.4740636,45.2066412 C69.425843,44.1135533 69.1365192,43.0365402 68.7346806,41.9916767 C70.9046088,41.0914866 73.7014052,40.5931671 77.2697315,41.0111125 C84.9207376,41.9113026 86.4316506,46.6855249 86.1423268,48.6948778 C85.853003,50.7042306 84.2456488,51.7973185 83.7152219,52.1348898 C83.184795,52.4724611 83.0079861,52.5849849 83.0562067,52.8261072 C83.1205009,53.1797533 83.3776775,53.1636785 83.8277367,53.0993792 C84.4546049,52.9868554 87.8461223,51.4758221 87.9907841,47.7786129 C88.2318873,43.052615 83.7312955,37.8925969 75.7748921,37.9408214 Z M16.7528453,57.8414519 C14.2132256,60.6063214 10.6770464,61.6511848 9.15005986,60.7670696 C7.51055856,59.8186551 8.15350024,55.7356501 11.2717674,52.8100324 C13.1684454,51.0257271 15.6116238,49.3700203 17.2350516,48.3573065 C17.604743,48.132259 18.1512435,47.8107625 18.8102587,47.408892 C18.9227735,47.3445927 18.9870677,47.312443 18.9870677,47.312443 C19.115656,47.2320689 19.2442443,47.1516948 19.3728327,47.0713207 C20.5140542,51.2507746 19.4210533,54.931909 16.7528453,57.8414519 Z M35.2374188,45.2709405 C34.353374,47.4249668 32.5049166,52.938631 31.3797687,52.6332093 C30.4153561,52.3760122 29.8206351,48.1965583 31.1868862,44.0653288 C31.8780485,41.9916767 33.3407408,39.516154 34.1926385,38.5516647 C35.5749632,37.0084817 37.1019497,36.4940874 37.4716411,37.1210054 C37.9377739,37.9408214 35.7839192,43.9206554 35.2374188,45.2709405 Z M50.4912103,52.56891 C50.1215188,52.7618079 49.7679009,52.8904065 49.6071655,52.7939575 C49.4946507,52.7296583 49.7679009,52.4724611 49.7679009,52.4724611 C49.7679009,52.4724611 51.6806524,50.4148838 52.4361089,49.4825441 C52.8700945,48.9360001 53.3844479,48.2930072 53.9309483,47.5696402 C53.9309483,47.6339395 53.9309483,47.7143136 53.9309483,47.7786129 C53.9309483,50.2380607 51.5520641,51.8937675 50.4912103,52.56891 Z M62.2570432,49.8844146 C61.9837929,49.6915168 62.0320136,49.0485239 62.9482055,47.039171 C63.3018234,46.2515047 64.1376476,44.9333693 65.5681928,43.6634583 C65.7289283,44.1778526 65.8414431,44.6761721 65.8253695,45.142342 C65.809296,48.2447827 63.5911471,49.40217 62.2570432,49.8844146 Z" id="Shape"></path>
        </g>
    </g>
</svg>