<?xml version="1.0" encoding="UTF-8"?>
<svg width="68px" height="56px" viewBox="0 0 68 56" version="1.1" xmlns="http://www.w3.org/2000/svg" xmlns:xlink="http://www.w3.org/1999/xlink">
    <!-- Generator: Sketch 51.3 (57544) - http://www.bohemiancoding.com/sketch -->
    <title>twitter</title>
    <desc>Created with Sketch.</desc>
    <defs></defs>
    <g id="Page-1" stroke="none" stroke-width="1" fill="none" fill-rule="evenodd">
        <g id="twitter" fill="#23394A" fill-rule="nonzero">
            <path d="M68,6.62897222 C65.49828,7.75355462 62.80922,8.51326791 59.98756,8.85505276 C62.8677,7.10547267 65.08008,4.33501707 66.1215,1.03362353 C63.42564,2.65400068 60.4401,3.83026425 57.26212,4.46422001 C54.71756,1.71650414 51.0918,0 47.07912,0 C39.37472,0 33.1279,6.32956594 33.1279,14.136869 C33.1279,15.2449134 33.25132,16.3240164 33.48898,17.3586735 C21.8943,16.7691636 11.61474,11.1407389 4.73382,2.58750423 C3.53294,4.67542375 2.84478,7.10374996 2.84478,9.6946996 C2.84478,14.5995878 5.30774,18.9266804 9.05114,21.4618144 C6.7643,21.3884271 4.61312,20.7524041 2.73224,19.6936291 C2.73088,19.7525456 2.73088,19.8118067 2.73088,19.8714123 C2.73088,26.7208909 7.53984,32.4347617 13.92198,33.733682 C12.75136,34.0568616 11.51886,34.2294767 10.24658,34.2294767 C9.34762,34.2294767 8.47382,34.1405851 7.62178,33.9758944 C9.39726,39.5922601 14.54928,43.6798966 20.65432,43.7935952 C15.8797,47.5856154 9.86442,49.845461 3.32792,49.845461 C2.20184,49.845461 1.0914,49.77862 0,49.6476943 C6.17406,53.6591873 13.50718,56 21.38566,56 C47.04648,56 61.0793,34.4579075 61.0793,15.7758514 C61.0793,15.1629126 61.0657,14.5534193 61.03884,13.9466823 C63.76462,11.9538561 66.12966,9.46385702 68,6.62897222 Z" id="Shape"></path>
        </g>
    </g>
</svg>