<?xml version="1.0" encoding="UTF-8"?>
<svg width="61px" height="70px" viewBox="0 0 61 70" version="1.1" xmlns="http://www.w3.org/2000/svg" xmlns:xlink="http://www.w3.org/1999/xlink">
    <!-- Generator: Sketch 51.3 (57544) - http://www.bohemiancoding.com/sketch -->
    <title>webpack-logo</title>
    <desc>Created with Sketch.</desc>
    <defs></defs>
    <g id="Page-1" stroke="none" stroke-width="1" fill="none" fill-rule="evenodd">
        <g id="webpack-logo" fill-rule="nonzero">
            <polygon id="Shape" fill="#FFFFFF" points="30.5 0 61 17.5 61 52.5 30.5 70 0 52.5 0 17.5"></polygon>
            <path d="M55.3395334,50.2446685 L31.0653693,64 L31.0653693,53.2865452 L46.1895495,44.9519193 L55.3395334,50.2446685 Z M57,48.7382706 L57,19.9713067 L48.1170842,25.1070182 L48.1170842,43.5967429 L57,48.7382706 Z M4.66046662,50.2446685 L28.9346307,64 L28.9346307,53.2865452 L13.8104505,44.9519193 L4.66046662,50.2446685 Z M3,48.7382706 L3,19.9713067 L11.8829158,25.1070182 L11.8829158,43.5967429 L3,48.7382706 Z M4.03924309,18.1101202 L28.9346307,4 L28.9346307,14.3586661 L12.986023,23.1469562 L12.8641006,23.2167507 L4.03924309,18.1101202 Z M55.9607569,18.1101202 L31.0653693,4 L31.0653693,14.3586661 L47.013977,23.1469562 L47.1358994,23.2167507 L55.9607569,18.1101202 Z" id="Shape" fill="#8ED6FB"></path>
            <path d="M29.4003995,52 L14,43.4593687 L14,26.5352586 L29.4003995,35.5050369 L29.4003995,52 Z M31.5996005,52 L47,43.4593687 L47,26.5352586 L31.5996005,35.5050369 L31.5996005,52 Z M15.042673,24.5768972 L30.5029962,16 L45.9633194,24.5768972 L30.5029962,33.5829416 L15.042673,24.5768972 Z" id="Shape" fill="#1C78C0"></path>
        </g>
    </g>
</svg>